<svg width="165" height="53" viewBox="0 0 165 53" fill="none" xmlns="http://www.w3.org/2000/svg">
<g clip-path="url(#clip0_3_3)">
<mask id="mask0_3_3" style="mask-type:luminance" maskUnits="userSpaceOnUse" x="0" y="0" width="165" height="53">
<path d="M165 0H0V53H165V0Z" fill="white"/>
</mask>
<g mask="url(#mask0_3_3)">
<path d="M28.2066 21.2068C27.3388 20.4188 26.3841 19.6309 25.3426 19.018C26.2105 16.2164 26.7313 11.1384 25.5162 9.82507C23.8673 7.98649 19.1807 11.2259 16.8374 11.2259C14.4942 11.2259 9.80756 7.98649 8.15866 9.82507C7.03036 11.1384 7.55106 16.2164 8.33216 19.1056C7.29076 19.7184 6.33606 20.4188 5.46816 21.2944C4.60036 16.3039 2.17026 11.3135 3.81926 8.24914C5.81536 4.65952 16.5771 5.00973 16.8374 5.00973C17.1846 5.00973 27.8595 4.65952 29.8556 8.16159C31.5046 11.2259 29.0745 16.2164 28.2066 21.2068Z" fill="black"/>
<path d="M19.0708 48.3633C18.8982 48.3633 18.7257 48.3633 18.5531 48.4514L26.0596 27.118H18.4668V14.7764C21.0553 14.9527 23.4712 15.8343 25.6282 17.0684C26.6636 17.6855 27.6127 18.3907 28.4755 19.2723C31.2365 21.9169 33.1347 25.5313 33.5661 29.6745C34.6015 38.8426 28.1304 47.2172 19.0708 48.3633Z" fill="#9A001F"/>
<path d="M16.2944 35.8122V48.4514C8.0641 47.8327 1.1285 41.7341 0.111278 33.6026C-0.536042 28.0343 1.68335 22.8195 5.6598 19.2841C6.5845 18.4886 7.6017 17.6931 8.7114 17.0744C10.7459 15.9254 13.1502 15.13 15.7395 14.7764C15.832 14.7764 15.9245 14.7764 16.0169 14.7764L7.8792 35.8122H16.2944Z" fill="#9A001F"/>
<path d="M16.8867 48.4515L16.6932 34.2434H9.77637L16.6932 15.8628L15.9838 29.6702H22.8119L16.8867 48.4515Z" fill="white"/>
<path d="M6.51758 8.25901C6.51758 8.25901 11.652 5.61807 18.4668 7.07059C18.4668 6.93854 11.9321 4.29761 6.51758 8.25901Z" fill="#FFFBFC"/>
<path d="M8.69008 20.208C8.69008 20.208 0.478428 25.6016 2.48948 36.4717C2.48948 36.4717 2.07048 31.9079 3.99768 28.6718C3.99768 28.6718 1.8191 38.4632 8.69008 44.1057C8.69008 44.1887 -0.778462 36.5547 8.69008 20.208Z" fill="#F2F2F2"/>
<path d="M28.4406 25.6392C28.4406 25.6392 32.3636 36.4925 22.812 45.1924C22.812 45.1924 35.0926 37.9569 28.4406 25.6392Z" fill="#F2F2F2"/>
<path d="M79.5745 14L74.7163 25.7329L73.449 28.9328L73.0265 29.4661L72.1817 31.386L72.076 31.4927C71.8648 32.026 69.4357 36.7192 69.2245 37.0392H74.1883C74.2939 36.8258 76.4061 32.4527 76.5117 32.2393L84.2214 14H79.5745ZM74.822 25.7329L70.0694 14H65L72.3929 31.386L72.6041 31.9193L75.9837 28.3995L74.822 25.7329Z" fill="white"/>
<path d="M63.8816 16.3065C63.2486 15.2399 62.5086 14.3866 61.4526 13.8533C60.3966 13.2133 59.1296 13 57.7566 13C56.1726 13 54.6936 13.4266 53.4264 14.1733C52.7924 14.5999 52.1584 15.1332 51.6304 15.7732C51.2084 15.1332 50.7854 14.5999 50.1524 14.1733C48.9904 13.4266 47.6174 13 46.0332 13C44.6602 13 43.3929 13.32 42.3368 13.8533C41.7031 14.1733 41.175 14.7066 40.7526 15.2399V13.2133H36V30.386H40.9638V21.7463C40.9638 20.6797 41.175 19.8264 41.4919 19.1864C41.8087 18.5464 42.2312 18.0131 42.8648 17.6931C43.2873 17.4798 43.9209 17.2665 44.6602 17.2665C45.7163 17.2665 46.4556 17.5865 47.0894 18.2264C47.6174 18.8664 47.9344 19.9331 47.9344 21.3197V30.386H52.7924V21.7463C52.7924 20.6797 52.8984 19.8264 53.3204 19.1864C53.6374 18.5464 54.0594 18.0131 54.6936 17.6931C55.2216 17.4798 55.8556 17.2665 56.5946 17.2665C57.6506 17.2665 58.3896 17.5865 59.0236 18.2264C59.5516 18.8664 59.8686 19.9331 59.8686 21.3197V30.386H64.8326V20.573C64.7266 18.8664 64.4096 17.3731 63.8816 16.3065Z" fill="white"/>
<path d="M106.37 25.8128C106.053 26.0261 105.736 26.1327 105.314 26.2394C104.363 26.5594 103.413 26.7727 102.357 26.7727C101.301 26.7727 100.35 26.5594 99.5051 26.2394C98.6602 25.9194 97.9209 25.3861 97.1816 24.7461C96.4423 24.1061 96.0199 23.3595 95.703 22.5062C95.3862 21.6529 95.175 20.6929 95.175 19.6263C95.175 18.5597 95.3862 17.5997 95.703 16.7464C96.1255 15.7864 96.5479 15.0398 97.1816 14.3998C97.8153 13.7599 98.6602 13.2265 99.5051 12.9066C100.35 12.5866 101.406 12.3732 102.462 12.3732C103.624 12.3732 104.575 12.5866 105.525 13.0132C106.476 13.4399 107.32 14.0798 108.165 14.9331L111.439 11.8399C110.383 10.56 109.01 9.59994 107.426 8.95997C105.842 8.31999 104.046 8 102.145 8C100.456 8 98.7658 8.31999 97.2872 8.8533C95.8087 9.38662 94.5413 10.24 93.4852 11.3066C92.4291 12.3732 91.5842 13.5465 90.9505 15.0398C90.3168 16.5331 90 17.9197 90 19.6263C90 21.3329 90.3168 22.8262 90.9505 24.3195C91.5842 25.7061 92.4291 26.986 93.4852 27.946C94.5413 29.0126 95.8087 29.7593 97.2872 30.3993C98.7658 30.9326 100.35 31.2526 102.145 31.2526C103.73 31.2526 105.314 31.0392 106.898 30.5059C108.482 29.9726 109.855 29.3326 111.122 28.3727L108.165 24.6395C107.532 25.0661 107.003 25.4928 106.37 25.8128ZM106.37 19.1997V27.626L111.122 28.266V19.1997H106.37Z" fill="white"/>
<path d="M127.598 13.5469L122.74 25.2798L121.472 28.4797L121.05 29.013L120.205 30.9329L120.099 31.0396C119.888 31.5729 117.459 36.2661 117.248 36.5861H122.212C122.317 36.3727 124.43 31.9996 124.535 31.7862L132.245 13.5469H127.598ZM122.845 25.2798L118.093 13.5469H113.023L120.416 30.9329L120.628 31.4662L124.007 27.9464L122.845 25.2798Z" fill="white"/>
<path d="M162.344 16.64C161.711 15.5734 160.971 14.7201 159.915 14.1868C158.859 13.5468 157.592 13.3335 156.219 13.3335C154.635 13.3335 153.156 13.7601 151.889 14.5068C151.255 14.9334 150.621 15.4667 150.093 16.1067C149.671 15.4667 149.248 14.9334 148.615 14.5068C147.453 13.7601 146.08 13.3335 144.496 13.3335C143.123 13.3335 141.855 13.6535 140.799 14.1868C140.166 14.5068 139.637 15.0401 139.215 15.5734V13.5468H134.462V30.7195H139.426V22.0798C139.426 21.0132 139.637 20.1599 139.954 19.5199C140.271 18.8799 140.694 18.3466 141.327 18.0266C141.75 17.8133 142.383 17.6 143.123 17.6C144.179 17.6 144.918 17.92 145.552 18.5599C146.08 19.1999 146.397 20.2666 146.397 21.6532V30.7195H151.255V22.0798C151.255 21.0132 151.361 20.1599 151.783 19.5199C152.1 18.8799 152.522 18.3466 153.156 18.0266C153.684 17.8133 154.318 17.6 155.057 17.6C156.113 17.6 156.852 17.92 157.486 18.5599C158.014 19.1999 158.331 20.2666 158.331 21.6532V30.7195H163.295V20.9065C163.189 19.1999 162.872 17.7066 162.344 16.64Z" fill="white"/>
<path d="M38.7402 43.46C38.7402 45.23 39.9802 46.07 41.4402 46.07C42.8902 46.07 44.1702 45.23 44.1702 43.46V39.05H43.0302V43.48C43.0302 44.56 42.4202 45.07 41.4502 45.07C40.4902 45.07 39.8802 44.56 39.8802 43.48V39.05H38.7402V43.46ZM46.5545 39.05V46H50.0445V45.08H47.6945V39.05H46.5545ZM51.5379 39.98H53.3979V46H54.5379V39.98H56.3879V39.05H51.5379V39.98ZM58.4424 46H59.5824V39.05H58.4424V46ZM61.9791 46H63.1191V41.24L65.2491 46H66.0391L68.1591 41.24V46H69.2991V39.05H68.0791L65.6491 44.5L63.2091 39.05H61.9791V46ZM76.3875 46H77.5875L75.0975 39.04H73.7775L71.2875 46H72.4775L72.9775 44.58H75.8875L76.3875 46ZM75.5675 43.65H73.2975L74.4375 40.42L75.5675 43.65ZM79.2101 39.98H81.0701V46H82.2101V39.98H84.0601V39.05H79.2101V39.98ZM89.9547 39.04H86.1147V46H89.9547V45.07H87.2547V42.94H89.6547V42.01H87.2547V39.97H89.9547V39.04ZM98.9262 38.96C96.9662 38.96 95.3762 40.43 95.3762 42.51C95.3762 44.6 96.9662 46.06 98.9262 46.06C100.796 46.06 102.156 44.69 102.366 43.08V42.19H98.5362V43.1H101.146C100.976 44.27 100.186 45.03 98.9262 45.03C97.5462 45.03 96.5462 44.04 96.5462 42.51C96.5462 40.98 97.5462 40 98.9262 40C99.7562 40 100.416 40.35 100.786 41.05H102.156C101.626 39.69 100.376 38.96 98.9262 38.96ZM106.101 43.48V46H107.241V43.48L109.541 39.05H108.281L106.671 42.46L105.061 39.05H103.791L106.101 43.48ZM111.345 46H112.485V41.24L114.615 46H115.405L117.525 41.24V46H118.665V39.05H117.445L115.015 44.5L112.575 39.05H111.345V46ZM124.181 42.51C124.181 44.6 125.771 46.06 127.731 46.06C129.181 46.06 130.431 45.34 130.961 43.98H129.591C129.221 44.72 128.561 45.07 127.731 45.07C126.351 45.07 125.351 44.08 125.351 42.51C125.351 40.94 126.351 39.96 127.731 39.96C128.561 39.96 129.221 40.31 129.591 41.05H130.961C130.431 39.69 129.181 38.96 127.731 38.96C125.771 38.96 124.181 40.43 124.181 42.51ZM137.036 39.04H133.196V46H137.036V45.07H134.336V42.94H136.736V42.01H134.336V39.97H137.036V39.04ZM143.91 39.04V44.22L140.48 39.04H139.34V46H140.48V40.81L143.91 46H145.05V39.04H143.91ZM147.087 39.98H148.947V46H150.087V39.98H151.937V39.05H147.087V39.98ZM157.831 39.04H153.991V46H157.831V45.07H155.131V42.94H157.531V42.01H155.131V39.97H157.831V39.04ZM163.826 41.13C163.826 41.82 163.426 42.31 162.536 42.31H161.276V39.98H162.536C163.426 39.98 163.826 40.43 163.826 41.13ZM160.136 39.05V46H161.276V43.22H162.146L163.746 46H165.106L163.386 43.12C164.556 42.83 164.996 41.95 164.996 41.13C164.996 40 164.186 39.05 162.536 39.05H160.136Z" fill="#D6D6D6"/>
</g>
</g>
<defs>
<clipPath id="clip0_3_3">
<rect width="165" height="53" fill="white"/>
</clipPath>
</defs>
</svg>
